<svg width="45" height="45" viewBox="0 0 45 45" fill="none" xmlns="http://www.w3.org/2000/svg">
<path d="M0 22.4061C3.11092 21.8412 6.04454 21.3173 8.9701 20.7852C12.0246 20.2285 15.0791 19.6637 18.1417 19.1398C18.6172 19.0579 18.7864 18.886 18.8751 18.403C19.8986 12.3697 20.9464 6.34461 21.9941 0.311323C22.0021 0.254019 22.0424 0.204901 22.1472 0.00843048C22.2278 0.344068 22.2923 0.556911 22.3326 0.769755C23.3642 6.63932 24.4038 12.5171 25.4113 18.3948C25.4918 18.8696 25.6611 19.0497 26.1447 19.1316C32.1408 20.1876 38.129 21.2764 44.1493 22.5043C43.287 22.6681 42.4327 22.8482 41.5703 23.0037C36.4446 23.9287 31.3268 24.8702 26.193 25.7707C25.6772 25.8607 25.4999 26.0326 25.4113 26.5647C24.3958 32.5653 23.3481 38.5658 22.3084 44.5582C22.2923 44.6319 22.252 44.7055 22.115 45.0084C21.7926 43.2238 21.5105 41.6602 21.2365 40.0967C20.4386 35.5615 19.6407 31.0263 18.867 26.4911C18.7784 25.9835 18.5688 25.8607 18.1094 25.7788C12.1697 24.7392 6.23797 23.675 0.306257 22.6108C0.2579 22.6026 0.217604 22.5535 0 22.4061ZM9.30054 22.3652C9.30054 22.4307 9.30054 22.4961 9.30054 22.5698C12.5968 23.1592 15.8851 23.7487 19.1813 24.3217C19.7374 24.4199 20.1888 24.5263 20.2935 25.2631C20.5595 27.1623 20.9141 29.0452 21.2365 30.928C21.5025 32.4589 21.7845 33.9815 22.0747 35.6024C22.2117 35.4387 22.2762 35.4059 22.2842 35.3568C22.8564 32.0414 23.4286 28.7259 23.9767 25.4023C24.0815 24.7719 24.2991 24.4445 24.9599 24.3299C27.4825 23.9124 29.997 23.4539 32.5116 22.9955C33.3417 22.8482 34.1718 22.6762 35.0019 22.5125C31.6815 21.743 28.3852 21.1536 25.0889 20.5806C24.5247 20.4823 24.0815 20.3759 23.9767 19.6391C23.7107 17.7399 23.3561 15.8571 23.0337 13.9742C22.7678 12.4516 22.4857 10.9207 22.1956 9.30805C22.0585 9.4554 21.9941 9.49633 21.986 9.53726C21.4138 12.8527 20.8335 16.1682 20.2935 19.4918C20.1888 20.1221 19.9712 20.466 19.3103 20.5642C17.8032 20.7852 16.3122 21.0717 14.8132 21.3419C12.9676 21.6775 11.13 22.0132 9.28442 22.357L9.30054 22.3652Z" fill="#9EB7E9"/>
</svg>
